# xmcd
#
# Track frame offsets:
# 150
# 14213
# 25883
# 38236
# 51918
# 64585
# 79640
# 93287
# 104983
# 114696
# 127034
# 140178
# 155851
# 171491
# 182450
# 196106
# 207897
# 219224
#
# Disc length: 3097 seconds
#
# Revision: 1
# Processed by: cddbd v1.4PL0 Copyright (c) Steve Scherf et al.
# Submitted via: Easy CD Ripper v2.24
#
DISCID=0e0c1712
DTITLE=dusty springfield - sings classic soul
DYEAR=2003
DGENRE=R&B
TTITLE0=when the love light starts
TTITLE1=needle in a haystack
TTITLE2=oh no! not my baby
TTITLE3=mr. dream merchant
TTITLE4=don't forget about me
TTITLE5=girls it ain't easy
TTITLE6=i just don't know what to do
TTITLE7=chained to a memory
TTITLE8=love power
TTITLE9=can i get a witness
TTITLE10=i had a talk with my man last
TTITLE11=so much love
TTITLE12=magic garden
TTITLE13=brand new me
TTITLE14=crumbs off the table
TTITLE15=long after tonight is over
TTITLE16=i can't give back the love
TTITLE17=breakfast in bed
EXTD=
EXTT0=
EXTT1=
EXTT2=
EXTT3=
EXTT4=
EXTT5=
EXTT6=
EXTT7=
EXTT8=
EXTT9=
EXTT10=
EXTT11=
EXTT12=
EXTT13=
EXTT14=
EXTT15=
EXTT16=
EXTT17=
PLAYORDER=
